<svg width="95" height="36" viewBox="0 0 95 36" fill="none" xmlns="http://www.w3.org/2000/svg">
<path d="M18 0.5L19.707 9.41813L24.697 1.83211L22.8612 10.7246L30.3744 5.62563L25.2754 13.1388L34.1679 11.303L26.5819 16.293L35.5 18L26.5819 19.707L34.1679 24.697L25.2754 22.8612L30.3744 30.3744L22.8612 25.2754L24.697 34.1679L19.707 26.5819L18 35.5L16.293 26.5819L11.303 34.1679L13.1388 25.2754L5.62563 30.3744L10.7246 22.8612L1.83211 24.697L9.41813 19.707L0.5 18L9.41813 16.293L1.83211 11.303L10.7246 13.1388L5.62563 5.62563L13.1388 10.7246L11.303 1.83211L16.293 9.41813L18 0.5Z" fill="#F2F2F2"/>
<path d="M42.621 18.156C42.1183 18.156 41.672 18.104 41.282 18C40.892 17.8873 40.554 17.7357 40.268 17.545C39.982 17.3457 39.748 17.129 39.566 16.895C39.384 16.6523 39.2497 16.3967 39.163 16.128L40.216 15.764C40.346 16.1453 40.606 16.479 40.996 16.765C41.3947 17.0423 41.88 17.181 42.452 17.181C43.154 17.181 43.7043 17.0423 44.103 16.765C44.5017 16.4877 44.701 16.1193 44.701 15.66C44.701 15.2353 44.5233 14.893 44.168 14.633C43.8127 14.3643 43.3447 14.1563 42.764 14.009L41.763 13.749C41.3557 13.645 40.9787 13.4933 40.632 13.294C40.294 13.086 40.021 12.826 39.813 12.514C39.6137 12.1933 39.514 11.812 39.514 11.37C39.514 10.5467 39.7783 9.90533 40.307 9.446C40.8443 8.978 41.6157 8.744 42.621 8.744C43.219 8.744 43.7347 8.84367 44.168 9.043C44.6013 9.23367 44.9523 9.48067 45.221 9.784C45.4983 10.0787 45.6933 10.3993 45.806 10.746L44.766 11.11C44.6013 10.6767 44.324 10.3387 43.934 10.096C43.544 9.84467 43.0717 9.719 42.517 9.719C41.9363 9.719 41.4727 9.862 41.126 10.148C40.788 10.4253 40.619 10.8067 40.619 11.292C40.619 11.708 40.7533 12.0287 41.022 12.254C41.2907 12.4707 41.6417 12.631 42.075 12.735L43.076 12.982C43.96 13.19 44.636 13.5367 45.104 14.022C45.5807 14.4987 45.819 15.0143 45.819 15.569C45.819 16.0457 45.6977 16.4833 45.455 16.882C45.2123 17.272 44.8527 17.584 44.376 17.818C43.908 18.0433 43.323 18.156 42.621 18.156ZM47.3044 18V8.9H48.4094V18H47.3044ZM50.4436 18V8.9H51.5486V16.999H55.8386V18H50.4436ZM57.5746 14.88L57.1196 13.879L61.9036 8.9H63.2816L57.5746 14.88ZM56.8076 18V8.9H57.8606V18H56.8076ZM62.1116 18L58.3806 13.372L59.0956 12.67L63.4506 18H62.1116ZM64.3521 18V8.9H65.4571V16.999H69.7471V18H64.3521ZM70.716 18V8.9H76.098V9.901H71.821V12.839H75.721V13.827H71.821V16.999H76.124V18H70.716ZM84.3244 18L80.6714 8.9H81.7764L85.4814 18H84.3244ZM76.9274 18L80.6324 8.9H81.7504L78.0974 18H76.9274ZM78.6824 15.413V14.425H83.7394V15.413H78.6824ZM86.4272 18V8.9H89.1962C90.0542 8.9 90.8082 9.095 91.4582 9.485C92.1169 9.86633 92.6326 10.3993 93.0052 11.084C93.3779 11.7687 93.5642 12.5573 93.5642 13.45C93.5642 14.334 93.3779 15.1183 93.0052 15.803C92.6326 16.4877 92.1169 17.025 91.4582 17.415C90.8082 17.805 90.0542 18 89.1962 18H86.4272ZM87.5322 16.986H89.1962C89.6556 16.986 90.0802 16.8993 90.4702 16.726C90.8602 16.544 91.2026 16.2883 91.4972 15.959C91.8006 15.6297 92.0346 15.2527 92.1992 14.828C92.3726 14.3947 92.4592 13.9353 92.4592 13.45C92.4592 12.9647 92.3726 12.5097 92.1992 12.085C92.0346 11.6517 91.8006 11.2703 91.4972 10.941C91.2026 10.6117 90.8602 10.3603 90.4702 10.187C90.0802 10.005 89.6556 9.914 89.1962 9.914H87.5322V16.986Z" fill="#F2F2F2"/>
<path d="M40.0504 27V23.5H41.1554C41.3954 23.5 41.6004 23.5367 41.7704 23.61C41.9404 23.6833 42.072 23.7917 42.1654 23.935C42.2587 24.075 42.3054 24.2467 42.3054 24.45C42.3054 24.62 42.267 24.77 42.1904 24.9C42.1137 25.0267 42.0054 25.13 41.8654 25.21C42.0387 25.2933 42.172 25.405 42.2654 25.545C42.362 25.685 42.4104 25.8517 42.4104 26.045C42.4104 26.2483 42.3654 26.4217 42.2754 26.565C42.1854 26.705 42.057 26.8133 41.8904 26.89C41.727 26.9633 41.5304 27 41.3004 27H40.0504ZM40.4704 26.62H41.2804C41.5004 26.62 41.672 26.5683 41.7954 26.465C41.922 26.3583 41.9854 26.2133 41.9854 26.03C41.9854 25.8333 41.9137 25.68 41.7704 25.57C41.627 25.4567 41.427 25.4 41.1704 25.4H40.4704V26.62ZM40.4704 25.035H41.2604C41.4537 25.035 41.6054 24.9833 41.7154 24.88C41.8254 24.7767 41.8804 24.6333 41.8804 24.45C41.8804 24.26 41.8154 24.115 41.6854 24.015C41.5587 23.9117 41.3787 23.86 41.1454 23.86H40.4704V25.035ZM43.067 28.06C43.0037 28.06 42.9303 28.0467 42.847 28.02C42.7637 27.9967 42.6753 27.965 42.582 27.925L42.732 27.59C42.8087 27.6233 42.8753 27.6483 42.932 27.665C42.992 27.6817 43.0387 27.69 43.072 27.69C43.162 27.69 43.2353 27.665 43.292 27.615C43.352 27.5683 43.402 27.5 43.442 27.41L43.727 26.73L44.652 24.5H45.082L43.882 27.35C43.8187 27.4967 43.752 27.6233 43.682 27.73C43.6153 27.8367 43.5337 27.9183 43.437 27.975C43.3403 28.0317 43.217 28.06 43.067 28.06ZM43.617 27L42.537 24.5H42.962L43.892 26.725L44.012 27H43.617Z" fill="#808080"/>
<path d="M49.2779 27.096C48.9685 27.096 48.6939 27.064 48.4539 27C48.2139 26.9307 48.0059 26.8373 47.8299 26.72C47.6539 26.5973 47.5099 26.464 47.3979 26.32C47.2859 26.1707 47.2032 26.0133 47.1499 25.848L47.7979 25.624C47.8779 25.8587 48.0379 26.064 48.2779 26.24C48.5232 26.4107 48.8219 26.496 49.1739 26.496C49.6059 26.496 49.9445 26.4107 50.1899 26.24C50.4352 26.0693 50.5579 25.8427 50.5579 25.56C50.5579 25.2987 50.4485 25.088 50.2299 24.928C50.0112 24.7627 49.7232 24.6347 49.3659 24.544L48.7499 24.384C48.4992 24.32 48.2672 24.2267 48.0539 24.104C47.8459 23.976 47.6779 23.816 47.5499 23.624C47.4272 23.4267 47.3659 23.192 47.3659 22.92C47.3659 22.4133 47.5285 22.0187 47.8539 21.736C48.1845 21.448 48.6592 21.304 49.2779 21.304C49.6459 21.304 49.9632 21.3653 50.2299 21.488C50.4965 21.6053 50.7125 21.7573 50.8779 21.944C51.0485 22.1253 51.1685 22.3227 51.2379 22.536L50.5979 22.76C50.4965 22.4933 50.3259 22.2853 50.0859 22.136C49.8459 21.9813 49.5552 21.904 49.2139 21.904C48.8565 21.904 48.5712 21.992 48.3579 22.168C48.1499 22.3387 48.0459 22.5733 48.0459 22.872C48.0459 23.128 48.1285 23.3253 48.2939 23.464C48.4592 23.5973 48.6752 23.696 48.9419 23.76L49.5579 23.912C50.1019 24.04 50.5179 24.2533 50.8059 24.552C51.0992 24.8453 51.2459 25.1627 51.2459 25.504C51.2459 25.7973 51.1712 26.0667 51.0219 26.312C50.8725 26.552 50.6512 26.744 50.3579 26.888C50.0699 27.0267 49.7099 27.096 49.2779 27.096ZM54.2239 27.12C53.8026 27.12 53.4293 27.032 53.1039 26.856C52.7839 26.6747 52.5333 26.4267 52.3519 26.112C52.1706 25.792 52.0799 25.424 52.0799 25.008V21.4H52.7599V25.008C52.7599 25.3013 52.8213 25.5627 52.9439 25.792C53.0719 26.016 53.2479 26.192 53.4719 26.32C53.6959 26.4427 53.9519 26.504 54.2399 26.504C54.5333 26.504 54.7919 26.4427 55.0159 26.32C55.2453 26.192 55.4213 26.016 55.5439 25.792C55.6719 25.5627 55.7359 25.3013 55.7359 25.008V21.4H56.4079V25.008C56.4079 25.424 56.3173 25.792 56.1359 26.112C55.9546 26.4267 55.6986 26.6747 55.3679 26.856C55.0373 27.032 54.6559 27.12 54.2239 27.12ZM57.5762 27V21.4H58.2642L61.6002 25.896V21.4H62.2802V27H61.6002L58.2562 22.48V27H57.5762ZM64.6595 27V22.016H62.8755V21.4H67.1155V22.016H65.3315V27H64.6595ZM67.7056 27V21.4H71.0176V22.016H68.3856V23.824H70.7856V24.432H68.3856V26.384H71.0336V27H67.7056ZM72.6719 25.08L72.3919 24.464L75.3359 21.4H76.1839L72.6719 25.08ZM72.1999 27V21.4H72.8479V27H72.1999ZM75.4639 27L73.1679 24.152L73.6079 23.72L76.2879 27H75.4639Z" fill="#67B464"/>
</svg>
